<?xml version="1.0" encoding="utf-8"?>
<!-- Generator: Adobe Illustrator 23.0.2, SVG Export Plug-In . SVG Version: 6.00 Build 0)  -->
<svg version="1.1" id="Layer_1" xmlns="http://www.w3.org/2000/svg" xmlns:xlink="http://www.w3.org/1999/xlink" x="0px" y="0px"
	 viewBox="0 0 64 64" style="enable-background:new 0 0 64 64;" xml:space="preserve">
<style type="text/css">
	.st0{fill:url(#SVGID_1_);}
	.st1{fill:#EAB39B;}
	.st2{fill:url(#SVGID_2_);}
	.st3{fill:url(#SVGID_3_);}
	.st4{fill:#8288A1;}
	.st5{fill:url(#SVGID_4_);}
	.st6{fill:#C7CDD8;}
	.st7{fill:url(#SVGID_5_);}
	.st8{fill:#F6B756;}
	.st9{fill:url(#SVGID_6_);}
	.st10{fill:#CBA07A;}
	.st11{fill:#E8C4A6;}
	.st12{fill:#DFE3EA;}
	.st13{fill:#73A353;}
</style>
<title>Student Question</title>
<g id="Student_Question">
	
		<linearGradient id="SVGID_1_" gradientUnits="userSpaceOnUse" x1="19.5" y1="39.9994" x2="19.5" y2="52.9994" gradientTransform="matrix(1 0 0 -1 0 66)">
		<stop  offset="0" style="stop-color:#F2C4B0"/>
		<stop  offset="1" style="stop-color:#FFE3D7"/>
	</linearGradient>
	<path class="st0" d="M19.5,26c-3,0-5.5-2.4-5.5-5.4c0,0,0-0.1,0-0.1v-2.1c0-3,2.5-5.5,5.5-5.5s5.5,2.5,5.5,5.5v2.1
		C25,23.5,22.6,26,19.5,26C19.6,26,19.5,26,19.5,26z"/>
	<path class="st1" d="M25,18.5v2c0,3-2.5,5.5-5.5,5.5S14,23.6,14,20.5v-2c0,3,2.5,5.5,5.5,5.5S25,21.6,25,18.5z"/>
	
		<linearGradient id="SVGID_2_" gradientUnits="userSpaceOnUse" x1="15" y1="3.02" x2="15" y2="14" gradientTransform="matrix(1 0 0 -1 0 66)">
		<stop  offset="0" style="stop-color:#D4D8E1"/>
		<stop  offset="1" style="stop-color:#F3F4F5"/>
	</linearGradient>
	<path class="st2" d="M13,52h4v9c0,1.1-0.9,2-2,2s-2-0.9-2-2V52z"/>
	
		<linearGradient id="SVGID_3_" gradientUnits="userSpaceOnUse" x1="24" y1="3.02" x2="24" y2="14" gradientTransform="matrix(1 0 0 -1 0 66)">
		<stop  offset="0" style="stop-color:#D4D8E1"/>
		<stop  offset="1" style="stop-color:#F3F4F5"/>
	</linearGradient>
	<path class="st3" d="M22,52h4v9c0,1.1-0.9,2-2,2s-2-0.9-2-2V52z"/>
	<path class="st4" d="M3,62V51c0-0.6,0.4-1,1-1s1,0.4,1,1v11c0,0.6-0.4,1-1,1S3,62.6,3,62z"/>
	<path class="st4" d="M35,62V51c0-0.6,0.4-1,1-1s1,0.4,1,1v11c0,0.6-0.4,1-1,1S35,62.6,35,62z"/>
	
		<linearGradient id="SVGID_4_" gradientUnits="userSpaceOnUse" x1="20.1967" y1="28.9998" x2="20.1967" y2="52.9916" gradientTransform="matrix(1 0 0 -1 0 66)">
		<stop  offset="0" style="stop-color:#D4D8E1"/>
		<stop  offset="1" style="stop-color:#F3F4F5"/>
	</linearGradient>
	<path class="st5" d="M34,27c0,2.2-1.8,4-4,4h-4c0,4.8,0,3.5,0,6c-13.5-0.1-4.6,0-16.3,0c-1.8,0-3.3-1.4-3.3-3.2
		c0-0.5,0.1-1,0.3-1.4c1.9-3.9,5.8-6.3,10.1-6.3H30V15c0-1.1,0.9-2,2-2c0.5,0,1,0.2,1.4,0.6C34.2,14.4,34,14.1,34,27z"/>
	<path class="st6" d="M17.9,37c-0.6,0-1-0.4-1-1c0-1.9-1.6-3.4-3.5-3.4H11c-0.6,0-1-0.4-1-1s0.4-1,1-1h2.4
		C18.5,30.6,20.3,37,17.9,37z"/>
	
		<linearGradient id="SVGID_5_" gradientUnits="userSpaceOnUse" x1="50.9953" y1="41" x2="50.9953" y2="65" gradientTransform="matrix(1 0 0 -1 0 66)">
		<stop  offset="0" style="stop-color:#FBCC88"/>
		<stop  offset="1" style="stop-color:#FFE5C3"/>
	</linearGradient>
	<path class="st7" d="M51,1c-6.6,0-12,5.4-12,12c0,3.2,1.3,6.2,3.5,8.5L39,25h12c6.6,0,12-5.4,12-12S57.6,1,51,1z"/>
	<path class="st8" d="M51,25H39l3.5-3.5c-2.6-2.6-3.9-6.3-3.4-10C40,18.1,46,22.7,52.5,21.8c5.4-0.7,9.7-5,10.4-10.4
		c0.8,6.6-3.8,12.6-10.4,13.4C52,25,51.5,25,51,25z"/>
	
		<linearGradient id="SVGID_6_" gradientUnits="userSpaceOnUse" x1="20" y1="14" x2="20" y2="29" gradientTransform="matrix(1 0 0 -1 0 66)">
		<stop  offset="0" style="stop-color:#D1A788"/>
		<stop  offset="1" style="stop-color:#F2D3B8"/>
	</linearGradient>
	<rect x="3" y="37" class="st9" width="34" height="15"/>
	<rect x="3" y="50" class="st10" width="34" height="2"/>
	<rect x="3" y="38" class="st11" width="34" height="3"/>
	<path class="st10" d="M38,39H2c-0.6,0-1-0.4-1-1s0.4-1,1-1h36c0.6,0,1,0.4,1,1S38.6,39,38,39z"/>
	<path class="st6" d="M26,35v2c-13.5-0.1-4.6,0-16.3,0c-1.3,0-2.5-0.8-3.1-2H26z"/>
	<rect x="13" y="52" class="st12" width="4" height="3"/>
	<rect x="22" y="52" class="st12" width="4" height="3"/>
	<path class="st13" d="M48.9,17.3l-4.6-4.6c-0.3-0.3-0.3-0.7,0-1l1-1c0.3-0.3,0.7-0.3,1,0l3.1,3.1L56,7.2c0.3-0.3,0.7-0.3,1,0l1,1
		c0.3,0.3,0.3,0.7,0,1l-8.1,8.1C49.6,17.5,49.2,17.5,48.9,17.3L48.9,17.3z"/>
</g>
</svg>
