<?xml version="1.0" encoding="utf-8"?>
<!-- Generator: Adobe Illustrator 23.0.2, SVG Export Plug-In . SVG Version: 6.00 Build 0)  -->
<svg version="1.1" baseProfile="tiny" id="Layer_1" xmlns="http://www.w3.org/2000/svg" xmlns:xlink="http://www.w3.org/1999/xlink"
	 x="0px" y="0px" viewBox="0 0 168 168" xml:space="preserve">
<path d="M59,51.8v-5.3c0-0.7-0.4-1.4-1-1.7l-14-8c-1-0.5-2.2-0.2-2.7,0.8c-0.2,0.3-0.3,0.6-0.3,1V60l-8-6.4V37.2
	c3.7-1.1,5.8-5,4.7-8.7c-1.1-3.7-5-5.8-8.7-4.7c-3.7,1.1-5.8,5-4.7,8.7c0.7,2.3,2.4,4,4.7,4.7v17.3c0,0.6,0.3,1.2,0.8,1.6l11,8.8
	c0.1,0.1,0.2,0.1,0.3,0.2v21.4c0,0.5,0.2,0.9,0.5,1.3l5.5,6.4v16.5c-3.7,1.1-5.8,5-4.7,8.7c1.1,3.7,5,5.8,8.7,4.7
	c3.7-1.1,5.8-5,4.7-8.7c-0.7-2.3-2.4-4-4.7-4.7V93.5c0-0.5-0.2-0.9-0.5-1.3L45,85.8V42l10,5.7v4.1c-3.7,1.1-5.8,5-4.7,8.7
	c1.1,3.7,5,5.8,8.7,4.7c3.7-1.1,5.8-5,4.7-8.7C63,54.2,61.3,52.5,59,51.8z M28,30.5c0-1.7,1.3-3,3-3c1.7,0,3,1.3,3,3
	c0,1.7-1.3,3-3,3l0,0C29.3,33.5,28,32.2,28,30.5C28,30.5,28,30.5,28,30.5z M52,117.5c0,1.7-1.3,3-3,3s-3-1.3-3-3s1.3-3,3-3
	C50.7,114.5,52,115.8,52,117.5C52,117.5,52,117.5,52,117.5z M57,61.5c-1.7,0-3-1.3-3-3s1.3-3,3-3s3,1.3,3,3l0,0
	C60,60.2,58.7,61.5,57,61.5C57,61.5,57,61.5,57,61.5z"/>
<path d="M77.4,53.1L70,45.7V30.5c0-1.1-0.9-2-2-2s-2,0.9-2,2v16c0,0.5,0.2,1,0.6,1.4l7.4,7.4v29.3l-15,15V85.2
	c3.7-1.1,5.8-5,4.7-8.7c-1.1-3.7-5-5.8-8.7-4.7c-3.7,1.1-5.8,5-4.7,8.7c0.7,2.3,2.4,4,4.7,4.7v19.3c0,0.8,0.5,1.5,1.2,1.8
	c0.2,0.1,0.5,0.1,0.8,0.2c0.5,0,1-0.2,1.4-0.6l19-19c0.4-0.4,0.6-0.9,0.6-1.4v-31C78,54,77.8,53.5,77.4,53.1z M57,81.5
	c-1.7,0-3-1.3-3-3s1.3-3,3-3s3,1.3,3,3C60,80.2,58.7,81.5,57,81.5C57,81.5,57,81.5,57,81.5z M32,96.8V83.2c3.7-1.1,5.8-5,4.7-8.7
	c-1.1-3.7-5-5.8-8.7-4.7c-3.7,1.1-5.8,5-4.7,8.7c0.7,2.3,2.4,4,4.7,4.7v13.6c-3.7,1.1-5.8,5-4.7,8.7c1.1,3.7,5,5.8,8.7,4.7
	c3.7-1.1,5.8-5,4.7-8.7C36,99.2,34.3,97.5,32,96.8z M27,76.5c0-1.7,1.3-3,3-3s3,1.3,3,3s-1.3,3-3,3C28.3,79.5,27,78.2,27,76.5
	C27,76.5,27,76.5,27,76.5z M30,106.5c-1.7,0-3-1.3-3-3s1.3-3,3-3s3,1.3,3,3C33,105.2,31.7,106.5,30,106.5
	C30,106.5,30,106.5,30,106.5z"/>
<path d="M155.1,132.6h-22.3c1.4-1.9,2.2-4.1,2.2-6.5v-4.2l3.3-2.6c0.8-0.7,1-1.9,0.4-2.7l-2.5-3.5l4-1.4c1-0.4,1.6-1.5,1.2-2.5
	l-2.1-6.3h5.8c1.4,0,2.7-0.7,3.4-1.8c0.8-1.2,1-2.7,0.5-4l-8.5-22.7l2.4-5.3c0.1-0.3,0.2-0.5,0.2-0.8V57.2
	c-0.6-15.1-6.8-27.8-17.9-36.8C115,12.2,102,8,88.8,8.6c-0.1,0-0.3,0-0.4,0h-8c-1.1,0-2,0.9-2,2v16c0,0.5,0.2,1,0.6,1.4l8,8
	c0.4,0.4,0.9,0.6,1.4,0.6h12c0.5,0,1-0.2,1.4-0.6l3.3-3.3c3.4,1.8,7.6,0.6,9.5-2.8c1.8-3.4,0.6-7.6-2.8-9.5
	c-3.4-1.8-7.6-0.6-9.5,2.8c-1.1,2.1-1.1,4.6,0,6.6l-2.7,2.7H89.2l-6.8-6.8V12.6h5.8c0.2,0,0.4,0.1,0.6,0c17.8-0.7,36.1,7.4,45,24
	h-6.7c-1.1-3.7-5-5.8-8.7-4.7c-3.7,1.1-5.8,5-4.7,8.7c0.7,2.3,2.4,4,4.7,4.7v18.3h-15c-1.1,0-2,0.9-2,2v11h-16c-0.5,0-1,0.2-1.4,0.6
	l-16,16c-0.4,0.4-0.6,0.9-0.6,1.4v16.3c-3.7,1.1-5.8,5-4.7,8.7c1.1,3.7,5,5.8,8.7,4.7c3.7-1.1,5.8-5,4.7-8.7c-0.7-2.3-2.4-4-4.7-4.7
	V95.4l14.8-14.8h36.2c0.8,0,1.5-0.4,1.8-1.1l6-12c0.1-0.3,0.2-0.6,0.2-0.9v-7h8.8v8.2l-2.6,5.7c-0.2,0.5-0.2,1-0.1,1.5l8.8,23.5
	c0,0.1,0,0.2,0,0.3c0,0.1-0.1,0.1-0.2,0.1h-8.6c-0.6,0-1.3,0.3-1.6,0.8c-0.4,0.5-0.5,1.2-0.3,1.8l2.4,7.1l-4.6,1.6
	c-0.6,0.2-1.1,0.7-1.3,1.3c-0.2,0.6-0.1,1.3,0.3,1.8l3,4.1l-2.6,2c-0.5,0.4-0.8,1-0.8,1.6v5.1c0,2.3-1.2,4.4-3.2,5.6
	c-0.9,0.6-2,0.9-3.1,0.9c-8.4,0-40.4-10.5-40.4-28v-4.2c0-1.1-0.9-2-2-2s-2,0.9-2,2v4.2c0,13.8,15,23.1,27.9,28H21.6
	c-1.1-0.1-2.1,0.6-2.3,1.7s0.6,2.1,1.7,2.3c0.2,0,0.4,0,0.5,0h133.4 M104,38.5c1.7,0,3,1.3,3,3s-1.3,3-3,3s-3-1.3-3-3
	C101,39.8,102.3,38.5,104,38.5C104,38.5,104,38.5,104,38.5z M68,132.5c0,1.7-1.3,3-3,3s-3-1.3-3-3s1.3-3,3-3
	C66.7,129.5,68,130.8,68,132.5C68,132.5,68,132.5,68,132.5z M113,53.5c0-1.7,1.3-3,3-3s3,1.3,3,3s-1.3,3-3,3
	C114.3,56.5,113,55.2,113,53.5C113,53.5,113,53.5,113,53.5z M124,70.5c-1.1,0-2,0.9-2,2V81l-5.2,10.5H101v-9h15c1.1,0,2-0.9,2-2
	c0,0,0,0,0,0V60.2c2.3-0.7,4-2.5,4.7-4.7h8.6c1.9,4.8,3.1,9.8,3.4,15H124z"/>
<path d="M103,58.5c-1.2,0-2.3,0.3-3.3,0.8l-3.3-3.3c-0.4-0.4-0.9-0.6-1.4-0.6H84c-1.1,0-2,0.9-2,2v16c0,0.6,0.3,1.1,0.7,1.5l6.3,5.4
	v11.1h4v-12c0-0.6-0.3-1.1-0.7-1.5L86,72.6V59.5h8.2l2.7,2.7c-1.8,3.4-0.6,7.6,2.8,9.5c3.4,1.8,7.6,0.6,9.5-2.8
	c1.8-3.4,0.6-7.6-2.8-9.5C105.3,58.8,104.2,58.5,103,58.5z M103,68.5c-1.7,0-3-1.3-3-3s1.3-3,3-3s3,1.3,3,3
	C106,67.2,104.7,68.5,103,68.5C103,68.5,103,68.5,103,68.5z"/>
</svg>
